<svg xmlns="http://www.w3.org/2000/svg" viewBox="0 0 400 300" width="406" height="306" class="illustration styles_illustrationTablet__1DWOa"><g id="_177_coding_outline" data-name="#177_coding_outline"><rect x="221.92" y="176.73" width="33.64" height="29.46" fill="#093f68"></rect><path d="M255.57,207.19H221.92a1,1,0,0,1-1-1V176.73a1,1,0,0,1,1-1h33.65a1,1,0,0,1,1,1v29.46A1,1,0,0,1,255.57,207.19Zm-32.65-2h31.65V177.73H222.92Z" fill="#093f68"></path><rect x="213.38" y="200.68" width="49.41" height="6.13" fill="#fff"></rect><path d="M262.78,207.8h-49.4a1,1,0,0,1-1-1v-6.12a1,1,0,0,1,1-1h49.4a1,1,0,0,1,1,1v6.12A1,1,0,0,1,262.78,207.8Zm-48.4-2h47.4v-4.12h-47.4Z" fill="#093f68"></path><path d="M295.57,178.28H183.74a5.49,5.49,0,0,1-5.56-6.16L185.43,98a7,7,0,0,1,6.76-6.16H304A5.48,5.48,0,0,1,309.58,98l-7.24,74.14A7,7,0,0,1,295.57,178.28Z" fill="#093f68"></path><path d="M295.57,179.28H183.74a6.48,6.48,0,0,1-6.55-7.26l7.24-74.14a8,8,0,0,1,7.76-7.06H304a6.51,6.51,0,0,1,4.91,2.12,6.59,6.59,0,0,1,1.65,5.14l-7.25,74.14A8,8,0,0,1,295.57,179.28ZM192.19,92.82a6,6,0,0,0-5.77,5.26l-7.24,74.14a4.49,4.49,0,0,0,4.56,5.06H295.57a5.93,5.93,0,0,0,5.77-5.26l7.25-74.14a4.61,4.61,0,0,0-1.14-3.6A4.55,4.55,0,0,0,304,92.82Z" fill="#093f68"></path><path d="M289,178.28H177.18a5.5,5.5,0,0,1-5.57-6.16L178.86,98a7,7,0,0,1,6.77-6.16H297.46A5.49,5.49,0,0,1,303,98l-7.25,74.14A7,7,0,0,1,289,178.28Z" fill="#68e1fd"></path><path d="M289,179.28H177.18a6.48,6.48,0,0,1-6.56-7.26l7.25-74.14a8,8,0,0,1,7.76-7.06H297.46A6.48,6.48,0,0,1,304,98.08l-7.25,74.14A8,8,0,0,1,289,179.28ZM185.63,92.82a5.93,5.93,0,0,0-5.77,5.26l-7.25,74.14a4.62,4.62,0,0,0,1.13,3.59,4.56,4.56,0,0,0,3.44,1.47H289a5.93,5.93,0,0,0,5.77-5.26L302,97.88a4.64,4.64,0,0,0-1.13-3.6,4.58,4.58,0,0,0-3.43-1.46Z" fill="#093f68"></path><path d="M287.39,161.09H182.15a2.73,2.73,0,0,1-2.76-3.07l5.53-56.6a3.46,3.46,0,0,1,3.37-3.07H293.52a2.74,2.74,0,0,1,2.77,3.07L290.75,158A3.46,3.46,0,0,1,287.39,161.09Z" fill="#fff"></path><path d="M287.39,162.09H182.15a3.74,3.74,0,0,1-3.76-4.17l5.53-56.6a4.49,4.49,0,0,1,4.37-4H293.52a3.72,3.72,0,0,1,3.76,4.17l-5.53,56.6A4.48,4.48,0,0,1,287.39,162.09Zm-99.1-62.74a2.49,2.49,0,0,0-2.38,2.17l-5.53,56.6a1.78,1.78,0,0,0,.44,1.4,1.74,1.74,0,0,0,1.33.57H287.39a2.48,2.48,0,0,0,2.37-2.17l5.53-56.6a1.78,1.78,0,0,0-.44-1.4,1.74,1.74,0,0,0-1.33-.57Z" fill="#093f68"></path><polygon points="281.77 154.59 228.03 154.59 232.01 113.85 285.75 113.85 281.77 154.59" fill="#fff"></polygon><path d="M281.77,155.59H228a1,1,0,0,1-.74-.33,1,1,0,0,1-.26-.77l4-40.74a1,1,0,0,1,1-.9h53.74a1,1,0,0,1,.74.32,1,1,0,0,1,.26.77l-4,40.74A1,1,0,0,1,281.77,155.59Zm-52.64-2h51.73l3.79-38.74H232.92Z" fill="#093f68"></path><polygon points="285.08 120.75 231.34 120.75 232.01 113.85 285.75 113.85 285.08 120.75" fill="#fff"></polygon><path d="M285.08,121.75H231.34a1,1,0,0,1-.75-.32,1,1,0,0,1-.25-.77l.68-6.91a1,1,0,0,1,1-.9h53.74a1,1,0,0,1,.74.32,1,1,0,0,1,.26.77l-.68,6.91A1,1,0,0,1,285.08,121.75Zm-52.64-2h51.73l.48-4.9H232.92Z" fill="#093f68"></path><polygon points="245.15 145.7 191.41 145.7 195.39 104.96 249.13 104.96 245.15 145.7" fill="#fff"></polygon><path d="M245.15,146.7H191.41a1,1,0,0,1-.74-.33,1,1,0,0,1-.26-.77l4-40.74a1,1,0,0,1,1-.9h53.74a1,1,0,0,1,1,1.1l-4,40.74A1,1,0,0,1,245.15,146.7Zm-52.64-2h51.73L248,106H196.3Z" fill="#093f68"></path><polygon points="248.46 111.87 194.71 111.87 195.39 104.96 249.13 104.96 248.46 111.87" fill="#fff"></polygon><path d="M248.46,112.87H194.71a1,1,0,0,1-.74-.33,1,1,0,0,1-.25-.77l.67-6.91a1,1,0,0,1,1-.9h53.74a1,1,0,0,1,1,1.1l-.68,6.91A1,1,0,0,1,248.46,112.87Zm-52.64-2h51.73L248,106H196.3Z" fill="#093f68"></path><path d="M235.83,140.39H224.94a1,1,0,0,1-.74-.33,1,1,0,0,1-.26-.77l.62-6.34a1,1,0,0,1,1-.9h10.89a1,1,0,0,1,.74.33,1,1,0,0,1,.25.77l-.62,6.34A1,1,0,0,1,235.83,140.39Zm-9.79-2h8.88l.42-4.34h-8.88Z" fill="#dfeaef"></path><polygon points="240.26 134.84 229.37 134.84 229.99 128.5 240.88 128.5 240.26 134.84" fill="#fff"></polygon><path d="M240.26,135.84H229.37a1,1,0,0,1-.74-.33,1,1,0,0,1-.25-.77l.62-6.34a1,1,0,0,1,1-.9h10.89a1,1,0,0,1,.74.33,1,1,0,0,1,.26.77l-.62,6.34A1,1,0,0,1,240.26,135.84Zm-9.79-2h8.88l.43-4.34H230.9Z" fill="#dfeaef"></path><polygon points="214.38 128.5 198.61 128.5 199.85 115.91 215.61 115.91 214.38 128.5" fill="#fff"></polygon><path d="M214.38,129.5H198.61a1,1,0,0,1-.74-.33,1,1,0,0,1-.25-.77l1.23-12.59a1,1,0,0,1,1-.9h15.76a1,1,0,0,1,.74.32,1,1,0,0,1,.26.77l-1.23,12.6A1,1,0,0,1,214.38,129.5Zm-14.66-2h13.75l1-10.59H200.75Z" fill="#dfeaef"></path><polygon points="207.9 139.96 197.49 139.96 198.24 132.37 208.64 132.37 207.9 139.96" fill="#fff"></polygon><path d="M207.9,141H197.49a1,1,0,0,1-.74-.33,1,1,0,0,1-.25-.77l.74-7.58a1,1,0,0,1,1-.91h10.4a1,1,0,0,1,.74.33,1,1,0,0,1,.25.77l-.74,7.59A1,1,0,0,1,207.9,141Zm-9.3-2H207l.55-5.59h-8.4Z" fill="#dfeaef"></path><path d="M276.18,128.5h-22.1a1,1,0,0,1,0-2h22.1a1,1,0,0,1,0,2Z" fill="#dfeaef"></path><path d="M268.26,135.25H253.42a1,1,0,1,1,0-2h14.84a1,1,0,0,1,0,2Z" fill="#dfeaef"></path><path d="M274.86,142h-22.1a1,1,0,0,1,0-2h22.1a1,1,0,0,1,0,2Z" fill="#dfeaef"></path><path d="M274.2,148.76h-10a1,1,0,0,1,0-2h10a1,1,0,0,1,0,2Z" fill="#dfeaef"></path><path d="M255.57,148.76H252.1a1,1,0,0,1,0-2h3.47a1,1,0,0,1,0,2Z" fill="#dfeaef"></path><rect x="160.55" y="206.19" width="99.09" height="9.12" fill="#68e1fd"></rect><path d="M259.64,216.3H160.55a1,1,0,0,1-1-1v-9.11a1,1,0,0,1,1-1h99.09a1,1,0,0,1,1,1v9.11A1,1,0,0,1,259.64,216.3Zm-98.09-2h97.09v-7.11H161.55Z" fill="#093f68"></path><rect x="259.64" y="206.19" width="54.17" height="9.12" transform="translate(573.45 421.49) rotate(180)" fill="#68e1fd"></rect><path d="M313.81,216.3H259.64a1,1,0,0,1-1-1v-9.11a1,1,0,0,1,1-1h54.17a1,1,0,0,1,1,1v9.11A1,1,0,0,1,313.81,216.3Zm-53.17-2h52.17v-7.11H260.64Z" fill="#093f68"></path><path d="M168.22,121s4.33,6.78,2.31,9.17-6.22,0-6.22,0" fill="#ffc9b0"></path><path d="M168,132.19a9.64,9.64,0,0,1-4.22-1.2,1,1,0,1,1,1-1.74s3.52,1.92,5,.23c1-1.25-.81-5.51-2.4-8a1,1,0,0,1,1.69-1.07c.79,1.23,4.61,7.54,2.23,10.36A4.06,4.06,0,0,1,168,132.19Z" fill="#093f68"></path><ellipse cx="121.93" cy="123.13" rx="7.88" ry="6.79" fill="#ffc9b0"></ellipse><path d="M121.93,130.91c-4.89,0-8.87-3.49-8.87-7.78s4-7.79,8.87-7.79,8.88,3.49,8.88,7.79S126.83,130.91,121.93,130.91Zm0-13.57c-3.79,0-6.87,2.6-6.87,5.79s3.08,5.78,6.87,5.78,6.88-2.59,6.88-5.78S125.72,117.34,121.93,117.34Z" fill="#093f68"></path><path d="M155.68,94c6.76,11.6,11.37,5,12.76,2.75v24.72a23.75,23.75,0,0,1-21.69,23.66v5.07a4.05,4.05,0,1,1-8.1,0v-4.75c-14.41-.54-21.44-12.94-21.44-24l3.72-22S130.37,106.84,155.68,94Z" fill="#ffc9b0"></path><path d="M142.7,155.28a5.06,5.06,0,0,1-5-5.06v-3.81A21.64,21.64,0,0,1,121.74,138a27.23,27.23,0,0,1-5.53-16.54.86.86,0,0,1,0-.16l3.72-22a1,1,0,0,1,1.6-.62c.09.06,9.41,6.72,33.69-5.58a1,1,0,0,1,1.32.39c2.34,4,4.64,6.15,6.65,6.17,1.48,0,3-1.14,4.39-3.44a1,1,0,0,1,1.85.52v24.72a24.9,24.9,0,0,1-21.69,24.56v4.17A5.06,5.06,0,0,1,142.7,155.28Zm-24.49-33.7c0,11,7.06,22.39,20.47,22.89a1,1,0,0,1,1,1v4.76a3.05,3.05,0,1,0,6.1,0v-5.07a1,1,0,0,1,.92-1,22.89,22.89,0,0,0,20.77-22.67V99.72a5.88,5.88,0,0,1-4.21,2h0c-2.63,0-5.28-2.16-7.88-6.36-20,9.94-30.19,7.32-33.62,5.73Z" fill="#093f68"></path><path d="M155.93,103.9c1.48.16,12.46,2.87,13.58,1.75,2.35-2.36,2.38-6,1.84-9.06a29.67,29.67,0,0,0-5.74-13c-2.7-3.48-7.06-8.11-11.73-8.44a1.14,1.14,0,0,0-1,.3,1.25,1.25,0,0,0,0,1.14l2,5.22a18.54,18.54,0,0,0-11.51-6.49,31.07,31.07,0,0,0-13.37,1c-.34,2.36,3.18,3.45,3.87,5.74a21.75,21.75,0,0,0-14.39,3.76c-8.36,5.84-10.35,15.59-10.11,25.14.19,6.91,1.27,14,4.81,19.94,6.78,11.39,22.6,14.27,33.31,7.46C157.6,132,155,109.13,155.93,103.9Z" fill="#725858"></path><path d="M134.64,143a26.39,26.39,0,0,1-6.16-.73,23.77,23.77,0,0,1-15.16-10.87c-3.15-5.29-4.72-11.78-4.94-20.42-.33-12.32,3.12-20.82,10.53-26A22.93,22.93,0,0,1,132,81l-.75-.7c-1.16-1-2.47-2.24-2.2-4.08a1,1,0,0,1,.73-.82,32,32,0,0,1,13.8-1A20.82,20.82,0,0,1,152.36,78l-.4-1a2.19,2.19,0,0,1,.08-2.08A2,2,0,0,1,154,74.2c3.94.28,8.13,3.25,12.45,8.83a30.65,30.65,0,0,1,5.94,13.39c.77,4.41,0,7.75-2.13,9.94-1,1-3.62.73-11.93-1l-1.49-.3c-.1,1.19-.13,2.89-.15,4.78-.14,9-.36,24.13-8.61,29.37A25,25,0,0,1,134.64,143ZM131.85,83a20.88,20.88,0,0,0-11.8,3.68c-6.81,4.76-10,12.7-9.68,24.29.22,8.3,1.7,14.48,4.67,19.46A21.8,21.8,0,0,0,129,140.35a23.6,23.6,0,0,0,18-2.82c7.33-4.66,7.55-19.09,7.68-27.7a46.7,46.7,0,0,1,.3-6.11,1,1,0,0,1,1.09-.81c.4,0,1.18.2,2.65.5,2.46.51,8.94,1.85,10.19,1.46,1.64-1.7,2.14-4.43,1.5-8.11a28.67,28.67,0,0,0-5.55-12.5c-2.72-3.52-6.84-7.77-11-8.07h0a1,1,0,0,1,0,.1l2,5.21a1,1,0,0,1-1.72,1,17.71,17.71,0,0,0-10.9-6.12,29.24,29.24,0,0,0-12.13.74,5.5,5.5,0,0,0,1.48,1.7,7,7,0,0,1,2.28,3,1,1,0,0,1-.19.92,1,1,0,0,1-.87.36Q132.81,83,131.85,83Z" fill="#093f68"></path><path d="M158,115c-3.25-1.18-8.49-.6-8.47,6.33,0,3.75,2.28,7,5.71,7.22" fill="#ffc9b0"></path><path d="M155.26,129.54h-.08c-3.83-.28-6.62-3.74-6.63-8.22,0-3.86,1.52-5.75,2.82-6.66a7.82,7.82,0,0,1,7-.61,1,1,0,0,1-.68,1.88,5.8,5.8,0,0,0-5.16.37c-1.32.92-2,2.61-2,5,0,3.41,2,6,4.78,6.24a1,1,0,0,1,.92,1.07A1,1,0,0,1,155.26,129.54Z" fill="#093f68"></path><circle cx="164.14" cy="116" r="2.06" fill="#093f68"></circle><path d="M167.69,112.05s-3.08-2.19-5.8-.61" fill="#ffc9b0"></path><path d="M167.69,113.05a1,1,0,0,1-.58-.18c-.06,0-2.61-1.78-4.72-.57a1,1,0,0,1-1.37-.36,1,1,0,0,1,.37-1.37c3.23-1.87,6.73.56,6.88.67a1,1,0,0,1,.23,1.39A1,1,0,0,1,167.69,113.05Z" fill="#093f68"></path><path d="M169.92,190.58s.55,13,11.6,15.38,43.34-1.06,43.34-1.06,8.67,0,9.75-2.82-3.9-9.1-9.1-8.66a52,52,0,0,0-9.53,1.73l-26-3L184.55,178Z" fill="#ffc9b0"></path><path d="M193.43,207.81a63.62,63.62,0,0,1-12.12-.87c-11.67-2.52-12.39-16.18-12.39-16.32a1,1,0,0,1,.35-.8l14.63-12.55a1,1,0,0,1,.9-.21,1,1,0,0,1,.69.61l5.2,13.52,25.2,2.94a54.15,54.15,0,0,1,9.54-1.71c3.64-.32,6.91,2.22,8.6,4.48,1.51,2,2.08,4.08,1.52,5.54-1.26,3.26-9,3.46-10.64,3.46C223.5,206.05,206.65,207.81,193.43,207.81ZM171,191c.21,2.3,1.65,12,10.78,14,10.77,2.32,42.7-1,43-1.07h.11c3.22,0,8.25-.69,8.82-2.18.25-.64,0-2-1.25-3.62-1.38-1.85-4-3.91-6.84-3.69a51.12,51.12,0,0,0-9.33,1.7.91.91,0,0,1-.4,0l-26-3a1,1,0,0,1-.82-.64l-4.91-12.76Z" fill="#093f68"></path><path d="M188.4,183.12s-14.19-40-29.35-40H124.93a13.83,13.83,0,0,0-13.78,12.6l-5.37,59.56h61.91l-.64-23.3Z" fill="#f56132"></path><path d="M167.69,216.3H105.78A1,1,0,0,1,105,216a1,1,0,0,1-.25-.77l5.36-59.56a14.77,14.77,0,0,1,14.78-13.51h34.12c15.68,0,29.7,39,30.29,40.65a1,1,0,0,1-.55,1.26l-20.72,8.61.62,22.62a1,1,0,0,1-1,1Zm-60.81-2h59.78l-.6-22.28a1,1,0,0,1,.61-1l20.46-8.5a157.45,157.45,0,0,0-8.61-19c-6.93-12.72-13.67-19.45-19.47-19.45H124.93a12.78,12.78,0,0,0-12.79,11.69Z" fill="#093f68"></path><path d="M96.7,152.57h40.61a10.51,10.51,0,0,1,10.44,9.32l6,53.41H92l-5.77-51.05A10.5,10.5,0,0,1,96.7,152.57Z" fill="#68e1fd"></path><path d="M153.79,216.3H92a1,1,0,0,1-1-.88l-5.77-51.06A11.5,11.5,0,0,1,96.7,151.57h40.61a11.5,11.5,0,0,1,11.43,10.21l6,53.41a1,1,0,0,1-.25.78A1,1,0,0,1,153.79,216.3Zm-60.86-2h59.74L146.75,162a9.49,9.49,0,0,0-9.44-8.43H96.7a9.51,9.51,0,0,0-9.45,10.57Z" fill="#093f68"></path><path d="M167.05,193a1,1,0,0,1-.93-.65L156,166.09a1,1,0,0,1,1.87-.72L168,191.64a1,1,0,0,1-.58,1.29A1.15,1.15,0,0,1,167.05,193Z" fill="#093f68"></path><path d="M279.47,183.66h23a0,0,0,0,1,0,0v16.43a6.1,6.1,0,0,1-6.1,6.1H285.57a6.1,6.1,0,0,1-6.1-6.1V183.66A0,0,0,0,1,279.47,183.66Z" fill="#ffbc0e"></path><path d="M296.41,207.19H285.57a7.11,7.11,0,0,1-7.1-7.1V183.66a1,1,0,0,1,1-1h23a1,1,0,0,1,1,1v16.43A7.11,7.11,0,0,1,296.41,207.19Zm-15.94-22.53v15.43a5.11,5.11,0,0,0,5.1,5.1h10.84a5.1,5.1,0,0,0,5.09-5.1V184.66Z" fill="#093f68"></path><path d="M305.69,200.48H302.5a1,1,0,0,1-1-1V188.21a1,1,0,0,1,1-1h3.19a6.64,6.64,0,1,1,0,13.27Zm-2.19-2h2.19a4.64,4.64,0,1,0,0-9.27H303.5Z" fill="#093f68"></path></g></svg>